# xmcd
#
# Track frame offsets:
#	225
#	18970
#	36892
#	55276
#	72756
#	88512
#	108687
#	124140
#	144919
#	160510
#	177014
#
# Disc length: 2564 seconds
#
# Revision: 2
# Processed by: cddbd v1.5.2PL0 Copyright (c) Steve Scherf et al.
# Submitted via: audiograbber 1.83.01
#
DISCID=890a010b
DTITLE=Grajeda, Wayne and Williams, Bob - Staytrue Street
DYEAR=2000
DGENRE=Blues
TTITLE0=Liliy Jane
TTITLE1=Number 17 Staytrue Street
TTITLE2=Live From Jumbo's Clown Room
TTITLE3=Postcard Day
TTITLE4=Infrequently
TTITLE5=What I Am Doing
TTITLE6=Like A Man
TTITLE7=Metal To Metal
TTITLE8=Larry
TTITLE9=Wouldn't It Be So Nice
TTITLE10=Brand New Me
EXTD=
EXTT0=
EXTT1=
EXTT2=
EXTT3=
EXTT4=
EXTT5=
EXTT6=
EXTT7=
EXTT8=
EXTT9=
EXTT10=
PLAYORDER=
